<?xml version="1.0" encoding="iso-8859-1"?>
<!-- Generator: Adobe Illustrator 19.0.0, SVG Export Plug-In . SVG Version: 6.00 Build 0)  -->
<svg version="1.1" id="Capa_1" xmlns="http://www.w3.org/2000/svg" xmlns:xlink="http://www.w3.org/1999/xlink" x="0px" y="0px"
	 viewBox="0 0 512 512" style="enable-background:new 0 0 512 512;" xml:space="preserve">
<g>
	<g>
		<polygon points="338.809,241 421,358.416 421,241 		"/>
	</g>
</g>
<g>
	<g>
		<polygon points="134.813,121 211,229.842 211,121 		"/>
	</g>
</g>
<g>
	<g>
		<polygon points="121,153.584 121,271 203.191,271 		"/>
	</g>
</g>
<g>
	<g>
		<polygon points="241,153.584 241,272.699 301,358.416 301,239.301 		"/>
	</g>
</g>
<g>
	<g>
		<path d="M467,0H45C20.186,0,0,20.186,0,45v422c0,24.814,20.186,45,45,45h422c24.814,0,45-20.186,45-45V45
			C512,20.186,491.814,0,467,0z M451,406c0,8.535-7.782,15-15,15H316c-4.647,0-10.126-3.307-12.29-6.401L224.191,301H106
			c-8.291,0-15-6.709-15-15V106c0-8.535,7.782-15,15-15h120c4.823,0,9.983,3.102,12.29,6.401L317.809,211H436
			c8.291,0,15,6.709,15,15V406z"/>
	</g>
</g>
<g>
	<g>
		<polygon points="331,282.158 331,391 407.187,391 		"/>
	</g>
</g>
<g>
</g>
<g>
</g>
<g>
</g>
<g>
</g>
<g>
</g>
<g>
</g>
<g>
</g>
<g>
</g>
<g>
</g>
<g>
</g>
<g>
</g>
<g>
</g>
<g>
</g>
<g>
</g>
<g>
</g>
</svg>
